<svg id="visual" viewBox="0 0 960 540" width="960" height="540" xmlns="http://www.w3.org/2000/svg" xmlns:xlink="http://www.w3.org/1999/xlink" version="1.1"><rect x="0" y="0" width="960" height="540" fill="#fff"></rect><defs><linearGradient id="grad1_0" x1="43.8%" y1="100%" x2="100%" y2="0%"><stop offset="14.444444444444446%" stop-color="#ffffff" stop-opacity="1"></stop><stop offset="85.55555555555554%" stop-color="#ffffff" stop-opacity="1"></stop></linearGradient></defs><defs><linearGradient id="grad2_0" x1="0%" y1="100%" x2="56.3%" y2="0%"><stop offset="14.444444444444446%" stop-color="#ffffff" stop-opacity="1"></stop><stop offset="85.55555555555554%" stop-color="#ffffff" stop-opacity="1"></stop></linearGradient></defs><g transform="translate(960, 540)"><path d="M-162 0C-158.1 -28.9 -154.2 -57.8 -140.3 -81C-126.4 -104.2 -102.5 -121.7 -77.5 -134.2C-52.5 -146.8 -26.2 -154.4 0 -162L0 0Z" fill="#1B74E4"></path></g><g transform="translate(0, 0)"><path d="M162 0C158 28.7 153.9 57.3 140.3 81C126.7 104.7 103.5 123.3 78.5 136C53.5 148.6 26.8 155.3 0 162L0 0Z" fill="#1B74E4"></path></g></svg>